<svg width="1350" height="914" viewBox="0 0 1350 914" fill="none" xmlns="http://www.w3.org/2000/svg">
<path d="M329 -571.566C344.47 -580.498 363.53 -580.498 379 -571.566L978.519 -225.434C993.989 -216.502 1003.52 -199.996 1003.52 -182.132V510.132C1003.52 527.996 993.989 544.502 978.519 553.434L379 899.566C363.53 908.498 344.47 908.498 329 899.566L-270.519 553.434C-285.989 544.502 -295.519 527.996 -295.519 510.132V-182.133C-295.519 -199.996 -285.989 -216.502 -270.519 -225.434L329 -571.566Z" fill="#F2F2F2" fill-opacity="0.5"/>
<path d="M329 -285.566C344.47 -294.498 363.53 -294.498 379 -285.566L762.013 -64.4338C777.483 -55.5021 787.013 -38.9958 787.013 -21.1325V421.133C787.013 438.996 777.483 455.502 762.013 464.434L379 685.566C363.53 694.498 344.47 694.498 329 685.566L-54.0127 464.434C-69.4827 455.502 -79.0127 438.996 -79.0127 421.133V-21.1325C-79.0127 -38.9958 -69.4827 -55.5021 -54.0127 -64.4338L329 -285.566Z" fill="#FAFAFA"/>
<path d="M1292 671.381C1296.95 674.239 1303.05 674.239 1308 671.381L1335.3 655.619C1340.25 652.761 1343.3 647.479 1343.3 641.762V610.238C1343.3 604.521 1340.25 599.239 1335.3 596.381L1308 580.619C1303.05 577.761 1296.95 577.761 1292 580.619L1264.7 596.381C1259.75 599.239 1256.7 604.521 1256.7 610.238V641.762C1256.7 647.479 1259.75 652.761 1264.7 655.619L1292 671.381Z" fill="url(#paint0_linear_901_3388)"/>
<path d="M814 181.464C817.713 179.321 822.287 179.321 826 181.464L839.981 189.536C843.694 191.679 845.981 195.641 845.981 199.928V216.072C845.981 220.359 843.694 224.321 839.981 226.464L826 234.536C822.287 236.679 817.713 236.679 814 234.536L800.019 226.464C796.306 224.321 794.019 220.359 794.019 216.072V199.928C794.019 195.641 796.306 191.679 800.019 189.536L814 181.464Z" fill="url(#paint1_linear_901_3388)"/>
<defs>
<linearGradient id="paint0_linear_901_3388" x1="1300" y1="676" x2="1300" y2="576" gradientUnits="userSpaceOnUse">
<stop stop-color="#818102"/>
<stop offset="1" stop-color="#249708"/>
</linearGradient>
<linearGradient id="paint1_linear_901_3388" x1="820" y1="178" x2="820" y2="238" gradientUnits="userSpaceOnUse">
<stop stop-color="#B4B407"/>
<stop offset="1" stop-color="#135004"/>
</linearGradient>
</defs>
</svg>
