<svg width="1440" height="2301" viewBox="0 0 1440 2301" fill="none" xmlns="http://www.w3.org/2000/svg">
<path d="M711.196 683.685L1203.73 1314.09L904.04 2055.84L111.826 2167.18L-380.703 1536.77L-81.0181 795.024L711.196 683.685Z" fill="white"/>
<path d="M533.033 1010.05L871.647 1443.46L665.613 1953.41L120.966 2029.95L-217.648 1596.55L-11.6143 1086.59L533.033 1010.05Z" fill="#FAFAFA"/>
<path d="M346.112 1284.49L561.594 1560.29L430.481 1884.81L83.8874 1933.52L-131.594 1657.71L-0.481811 1333.2L346.112 1284.49Z" fill="white"/>
<path d="M229.651 1430.2L383.567 1627.21L289.915 1859L42.3481 1893.79L-111.567 1696.79L-17.9156 1465L229.651 1430.2Z" fill="#FAFAFA"/>
<path d="M136.191 1570.92L228.54 1689.12L172.349 1828.2L23.8089 1849.08L-68.5403 1730.88L-12.3494 1591.8L136.191 1570.92Z" fill="white"/>
</svg>
